<svg xmlns="http://www.w3.org/2000/svg" width="76" height="20" viewBox="0 0 76 20">
  <g fill="none" fill-rule="evenodd">
      <path fill="#1B2F73" d="M19.339 15.04l.996-4.443h1.372c1.945 0 3.56.54 3.518 2.334-.047 2.023-2.122 2.848-4.389 2.848-.356 0-.694 0-1.013-.01-.628-.057-.484-.73-.484-.73zm10.288-2.01c0-2.668-1.882-3.832-3.408-3.945 1.925-.32 4.47-1.737 4.47-4.343 0-2.783-2.794-4.27-7.01-4.27-1.916 0-3.78.162-5.443.43l-3.023 13.401s-1.044 3.463 1.926 4.186c.833.202 1.4.278 2.325.33 7.884.436 10.163-3.105 10.163-5.789zM21.92 3.584c.321-.05 1.085-.1 1.814-.1 1.591 0 2.712.558 2.681 1.846-.04 1.56-1.625 2.446-3.913 2.446h-.889c-.646 0-.457-.74-.457-.74l.764-3.452zM48.905 18.867c.64 0 1.848-.251 2.26-2.088.327-1.464.878-3.948.878-3.948.43.028 1.025.107 1.716.107 6.756 0 9.104-4.34 9.104-7.29 0-3.218-2.239-5.065-7.123-5.083-2-.018-3.728.057-5.37.437l-3.968 17.865h2.503zm5.43-15.153c.348-.051.949-.089 1.75-.089 1.569 0 2.873.463 2.873 2.35 0 1.917-1.46 3.768-4.298 3.79-.187 0-.358-.005-.515-.01-1.27 0-.914-1.06-.914-1.06l1.104-4.981zM36.495 10.974c0-2.908 1.887-7.25 6.212-7.25 1.128 0 3.158.293 4.324 1.334 0 0 .435-1.48.56-2.094.124-.601-.1-1.605-1.954-2.203-1.201-.387-2.139-.574-3.466-.574-6.764 0-10.267 5.557-10.267 11.026 0 5.845 3.909 7.817 7.917 7.817 1.437 0 2.387-.153 3.287-.49 1.106-.387 1.293-1.384 1.293-1.384l.667-3.004c-1.705 1.251-2.969 1.446-4.125 1.446-2.81 0-4.448-1.804-4.448-4.624M7.927 8.64c1.049-2.554.877-6.006-.794-6.758-1.53-.719-3.27 1.327-3.352 1.432 0 0-.574.701-1.01 1.683.3.163.872.447.872.447A14.29 14.29 0 0 1 7.927 8.64"/>
      <path fill="#ff7800" d="M12.85 6.674c.137.185 1.753 2.196.265 4.577-1.63 2.602-6.077 5.57-7.338 6.016-2.45 1.025-4.109-.876-4.25-1.076-.456-.589-.568-.714-.79-1.144C10.726 10.534 9.026 2.77 7.135 1.882c.608.306 2.041 1.13 3.335 2.282a18.336 18.336 0 0 1 2.382 2.51"/>
      <path fill="#1B2F73" d="M70.038 8.64c1.047-2.554.877-6.006-.795-6.758-1.53-.719-3.27 1.327-3.351 1.432 0 0-.575.701-1.011 1.683.299.163.872.447.872.447a14.29 14.29 0 0 1 4.285 3.196"/>
      <g fill="#ff7800">
          <path d="M75.225 11.25c-1.629 2.603-6.077 5.572-7.337 6.017-2.45 1.025-4.11-.876-4.25-1.076-.458-.589-.57-.714-.79-1.144 9.987-4.513 8.288-12.278 6.396-13.165.607.306 2.04 1.13 3.334 2.282a18.375 18.375 0 0 1 2.383 2.51c.136.185 1.753 2.196.264 4.577z"/>
      </g>
  </g>
</svg>
